# xmcd
#
# Track frame offsets:
#	150
#	11635
#	24372
#	35902
#	51080
#	67090
#	81710
#	95667
#	112365
#	123105
#
# Disc length: 1772 seconds
#
# Revision: 0
# Processed by: cddbd v1.5.2PL0 Copyright (c) Steve Scherf et al.
# Submitted via: audiograbber 1.83.01
#
DISCID=9006ea0a
DTITLE=Various Artist - DESPERADOS
DYEAR=1995
DGENRE=
TTITLE0=Ladies Love Outlaws  *  Waylon Jennings
TTITLE1=Bloody Mary Morning  *  Willie Nelson
TTITLE2=My Rough And Rowdy Days  *  Waylon Jennings
TTITLE3=I´m Not Lisa  *  Jessi Colter
TTITLE4=Whisky River  *  Willie Nelson
TTITLE5=T For Texas  *  Tompall And His Outlaw Band
TTITLE6=My Heroes Have Always Been Cowboys  *  Willie Nelson
TTITLE7=Rose In Paradise  *  Waylon Jennings
TTITLE8=It´s Morning ( And I Still Love You )  *  Jessi Colter
TTITLE9=Bad, Bad, Bad Cowboy  *  Tompall Glaser Of The Glaser Brothers
EXTD=
EXTT0=
EXTT1=
EXTT2=
EXTT3=
EXTT4=
EXTT5=
EXTT6=
EXTT7=
EXTT8=
EXTT9=
PLAYORDER=
